# xmcd CD database file
#
# Track frame offsets:
#	150
#	14828
#	31099
#	46647
#	61511
#	76357
#	92616
#	113984
#	135734
#	153196
#	172174
#
# Disc length: 2582 seconds
#
# Revision: 1
# Processed by: cddbd v1.5.1PL0 Copyright (c) Steve Scherf et al.
# Submitted via: jetAudio 5
#
DISCID=7f0a140b
DTITLE=Brian McComas - Brian McComas
DYEAR=1900
DGENRE=
TTITLE0=99.9% Sure (I've Never Been Here Before)
TTITLE1=Come With Me
TTITLE2=Night Disappear With You
TTITLE3=You'd Have Never Said Good-bye
TTITLE4=Sixteen
TTITLE5=You're In My head
TTITLE6=Baby Let Me Be Your Man
TTITLE7=Never Meant A Thing
TTITLE8=Straight To You
TTITLE9=I Could Never Love You Enough
TTITLE10=I'll Always Be There
EXTD=
EXTT0=
EXTT1=
EXTT2=
EXTT3=
EXTT4=
EXTT5=
EXTT6=
EXTT7=
EXTT8=
EXTT9=
EXTT10=
PLAYORDER=
